<?xml version="1.0" standalone="no"?>
<!DOCTYPE svg PUBLIC "-//W3C//DTD SVG 20010904//EN"
 "http://www.w3.org/TR/2001/REC-SVG-20010904/DTD/svg10.dtd">
<svg version="1.0" xmlns="http://www.w3.org/2000/svg"
 width="1080.000000pt" height="1080.000000pt" viewBox="0 0 1080.000000 1080.000000"
 preserveAspectRatio="xMidYMid meet">
<metadata>
Created by potrace 1.14, written by Peter Selinger 2001-2017
</metadata>
<g transform="translate(0.000000,1080.000000) scale(0.100000,-0.100000)"
fill="#000000" stroke="none">
<path d="M10635 9290 c-22 -3 -75 -5 -117 -5 -43 0 -78 -2 -78 -5 0 -3 -15 -5
-33 -6 -57 -1 -270 -15 -327 -21 -30 -3 -74 -7 -97 -7 -24 -1 -43 -3 -43 -6 0
-3 -30 -6 -68 -8 -37 -1 -87 -4 -112 -7 -25 -2 -78 -7 -119 -11 -94 -8 -99 -9
-107 -16 -3 -4 -16 -3 -28 2 -13 4 -28 5 -34 1 -6 -4 -27 -6 -47 -6 -19 1 -35
-1 -35 -5 0 -3 -24 -7 -52 -7 -29 -1 -66 -4 -83 -6 -54 -8 -179 -20 -202 -20
-13 1 -23 -2 -23 -6 0 -3 -25 -6 -56 -6 -31 0 -58 -3 -60 -6 -2 -3 -21 -5 -44
-5 -22 1 -40 -1 -40 -4 0 -3 -17 -6 -37 -7 -60 -2 -177 -14 -193 -20 -15 -5
-40 -9 -140 -18 -30 -3 -80 -9 -110 -15 -69 -12 -136 -21 -177 -23 -18 -1 -33
-4 -33 -7 0 -3 -12 -6 -27 -5 -16 0 -57 -5 -93 -12 -36 -6 -87 -14 -112 -17
-26 -3 -64 -9 -85 -13 -21 -3 -57 -7 -80 -7 -22 -1 -39 -4 -37 -7 2 -4 -15 -9
-39 -12 -43 -5 -107 -14 -162 -23 -16 -2 -48 -6 -70 -9 -22 -2 -42 -5 -45 -6
-3 -1 -9 -3 -15 -4 -31 -6 -84 -16 -110 -21 -16 -3 -41 -7 -55 -8 -14 -1 -29
-4 -35 -7 -5 -3 -25 -5 -42 -5 -18 1 -33 -2 -33 -6 0 -5 -3 -7 -7 -6 -5 1 -35
-2 -68 -7 -33 -5 -63 -8 -67 -7 -5 1 -8 -2 -8 -6 0 -4 -15 -8 -32 -9 -18 -1
-67 -9 -108 -17 -41 -9 -86 -18 -100 -20 -14 -3 -25 -5 -25 -6 0 -1 -11 -4
-25 -6 -73 -10 -99 -14 -135 -23 -71 -17 -109 -24 -137 -25 -16 -1 -28 -5 -28
-10 0 -5 -2 -7 -5 -4 -4 3 -25 1 -48 -4 -79 -18 -92 -21 -114 -21 -13 -1 -23
-4 -23 -8 0 -4 -8 -8 -17 -7 -26 0 -104 -15 -144 -27 -11 -4 -32 -8 -47 -10
-15 -3 -38 -7 -52 -10 -14 -4 -38 -9 -55 -12 -16 -3 -37 -8 -45 -13 -8 -4 -23
-6 -32 -5 -10 2 -18 0 -18 -4 0 -4 -8 -7 -17 -8 -10 0 -29 -4 -43 -7 -14 -3
-47 -11 -75 -17 -27 -6 -54 -14 -60 -17 -5 -3 -21 -7 -35 -8 -14 -1 -34 -5
-45 -8 -11 -3 -51 -12 -90 -21 -38 -9 -79 -18 -90 -21 -11 -3 -31 -7 -45 -9
-14 -2 -26 -4 -27 -5 -2 -1 -6 -3 -10 -5 -5 -1 -15 -4 -23 -8 -8 -3 -31 -8
-51 -10 -19 -2 -46 -10 -60 -17 -13 -8 -25 -13 -26 -12 -3 2 -6 2 -20 -3 -5
-1 -32 -5 -61 -10 -28 -4 -52 -11 -52 -15 0 -3 -6 -7 -12 -7 -7 0 -47 -10 -88
-22 -41 -12 -76 -21 -77 -21 -2 0 -4 0 -5 -1 -8 -2 -45 -10 -58 -13 -8 -1 -22
-5 -30 -8 -8 -4 -28 -10 -45 -14 -16 -4 -36 -9 -43 -11 -6 -1 -20 -5 -30 -7
-9 -3 -18 -5 -19 -6 -2 -2 -7 -3 -12 -4 -5 0 -13 -4 -17 -8 -4 -5 -20 -8 -36
-8 -16 0 -44 -7 -63 -14 -19 -8 -35 -13 -35 -10 0 2 -13 -2 -30 -11 -16 -8
-42 -17 -57 -19 -35 -5 -176 -48 -183 -56 -3 -3 -12 -5 -20 -5 -8 1 -22 -2
-31 -6 -9 -5 -29 -11 -45 -14 -67 -12 -78 -15 -84 -26 -4 -6 -10 -10 -14 -10
-3 1 -7 1 -8 0 -2 -1 -14 -2 -28 -4 -14 -1 -42 -10 -64 -20 -21 -9 -52 -17
-67 -17 -16 -1 -29 -5 -29 -9 0 -5 -19 -13 -42 -19 -24 -6 -50 -14 -58 -17 -8
-3 -21 -8 -28 -10 -6 -1 -18 -5 -25 -6 -6 -2 -19 -7 -27 -10 -46 -20 -99 -35
-104 -30 -3 4 -6 1 -6 -5 0 -7 -3 -11 -7 -10 -10 3 -77 -19 -120 -38 -17 -8
-38 -14 -46 -14 -25 0 -78 -26 -70 -34 5 -4 1 -7 -7 -5 -22 4 -89 -12 -96 -22
-3 -5 -16 -9 -30 -9 -13 0 -24 -5 -24 -12 0 -6 -3 -9 -6 -5 -4 3 -22 0 -41 -8
-19 -8 -39 -12 -44 -9 -5 3 -9 1 -9 -4 0 -8 -23 -18 -60 -27 -7 -1 -85 -30
-185 -68 -44 -17 -84 -34 -90 -37 -14 -10 -119 -45 -128 -42 -4 1 -7 -2 -7 -8
0 -6 -3 -9 -7 -8 -9 1 -11 0 -123 -46 -41 -17 -83 -31 -92 -31 -9 0 -23 -6
-30 -12 -6 -7 -20 -13 -30 -13 -10 0 -18 -5 -18 -10 0 -6 -3 -9 -7 -8 -5 1
-21 -5 -38 -12 -16 -7 -32 -14 -35 -15 -3 0 -27 -11 -54 -23 -26 -12 -67 -27
-90 -34 -22 -7 -46 -19 -52 -27 -6 -8 -16 -11 -21 -8 -6 4 -16 1 -22 -7 -7 -8
-23 -17 -37 -20 -14 -4 -57 -22 -97 -40 -62 -29 -140 -65 -157 -71 -58 -23
-90 -40 -90 -47 0 -5 -5 -6 -11 -2 -6 3 -14 2 -18 -4 -4 -7 -16 -13 -28 -15
-12 -1 -28 -8 -35 -15 -8 -6 -18 -9 -21 -5 -4 3 -7 1 -7 -5 0 -11 -80 -50 -89
-43 -2 1 -7 -2 -10 -7 -3 -5 -64 -38 -136 -72 -71 -34 -132 -66 -133 -71 -2
-5 -8 -6 -14 -3 -6 4 -13 3 -17 -2 -8 -12 -104 -60 -113 -56 -4 1 -8 -3 -8
-10 0 -6 -3 -8 -6 -5 -4 3 -18 -2 -32 -13 -13 -11 -28 -17 -33 -14 -5 3 -9 0
-9 -7 0 -7 -3 -9 -7 -6 -3 4 -13 1 -22 -7 -17 -15 -56 -37 -185 -105 -43 -23
-91 -51 -107 -62 -16 -11 -29 -17 -29 -14 0 4 -7 -1 -16 -9 -8 -9 -22 -16 -30
-16 -8 0 -14 -4 -14 -9 0 -5 -13 -13 -28 -19 -16 -5 -36 -17 -45 -27 -9 -9
-17 -14 -17 -10 0 3 -15 -4 -32 -17 -18 -13 -37 -23 -41 -23 -4 0 -11 -6 -16
-13 -5 -8 -12 -14 -17 -14 -5 -1 -25 -11 -44 -23 -19 -12 -43 -24 -52 -28 -17
-6 -18 -30 -18 -313 0 -168 3 -304 8 -302 4 2 20 10 37 18 17 8 35 19 42 25 7
5 19 16 28 23 8 7 15 10 15 7 0 -4 13 3 29 14 15 11 31 18 34 14 4 -3 9 2 13
11 3 9 10 14 14 11 5 -3 15 1 23 9 8 8 26 18 41 22 14 3 26 10 26 15 0 5 5 9
11 9 6 0 23 9 39 20 15 11 30 17 34 13 3 -3 6 -1 6 5 0 7 10 12 22 12 12 0 18
3 15 6 -4 4 28 23 71 43 42 20 79 39 82 42 8 10 104 53 113 51 4 -1 7 2 7 6 0
5 16 14 35 22 19 8 35 17 35 22 0 4 3 7 8 6 9 -2 85 34 93 45 3 5 9 9 12 8 4
0 24 7 44 16 21 9 41 16 46 15 4 -1 7 2 7 8 0 6 3 9 8 8 10 -2 85 35 94 47 4
6 8 6 8 1 0 -5 7 -3 15 4 8 7 15 9 15 4 0 -5 4 -4 8 2 9 14 123 67 129 60 3
-3 13 3 24 12 10 10 35 24 56 31 21 8 65 27 97 42 33 16 65 29 72 29 7 0 14 4
16 10 2 5 12 11 23 13 11 2 31 9 45 14 162 67 221 93 250 108 14 7 28 14 33
14 4 0 24 8 44 16 20 9 47 18 60 21 13 4 23 10 23 15 0 5 3 8 8 7 9 -4 234 82
246 93 6 5 15 9 22 9 6 0 29 8 50 17 22 9 44 18 49 19 46 13 130 46 141 55 8
6 14 9 14 6 0 -3 24 5 54 18 30 13 56 22 58 19 3 -2 38 10 79 26 41 17 76 31
79 32 3 0 15 4 28 9 13 5 34 12 48 15 13 3 27 10 29 15 3 4 12 6 20 2 8 -3 15
0 15 6 0 7 6 11 13 10 6 -1 19 0 27 3 8 4 58 20 110 38 52 17 104 35 115 40
26 11 147 50 160 51 6 0 15 4 20 9 6 4 27 11 48 15 20 4 37 10 37 14 0 4 8 7
18 8 23 2 174 43 187 51 5 4 21 8 35 10 13 2 27 7 30 12 3 5 20 10 38 12 18 1
32 6 32 11 0 4 5 5 10 2 6 -4 17 -1 25 5 8 6 19 9 25 5 5 -3 10 -2 10 4 0 8
75 27 93 23 4 -1 7 2 7 6 0 5 6 9 13 10 6 0 23 3 37 7 14 4 33 8 43 8 9 1 17
7 17 13 0 7 8 10 20 7 11 -3 20 0 20 6 0 5 7 8 15 5 8 -4 22 -1 30 6 8 6 19 9
25 5 5 -3 10 -2 10 3 0 5 12 9 27 9 28 0 47 5 93 26 14 6 35 10 48 9 12 0 20
3 17 8 -4 6 11 10 34 10 22 0 42 4 46 9 4 8 87 31 130 37 6 0 17 3 25 7 8 3
29 9 45 13 17 4 37 9 45 11 8 3 22 6 30 7 29 6 75 18 90 23 8 4 19 5 24 4 4
-1 13 2 20 7 6 5 19 8 29 7 9 -2 17 2 17 8 0 5 3 8 6 5 3 -4 34 2 69 12 35 10
66 16 69 12 3 -3 6 -1 6 4 0 5 8 11 18 12 31 3 47 7 60 15 6 5 12 6 12 2 0 -3
9 -1 19 5 11 5 39 12 63 15 24 2 52 7 63 10 11 2 52 12 90 22 39 10 72 20 75
23 3 3 14 6 25 7 31 2 72 10 165 33 47 12 96 23 110 25 14 1 27 4 30 5 3 1 8
2 13 1 4 0 7 4 7 10 0 5 4 8 9 5 11 -7 108 12 175 33 17 6 48 12 69 13 21 1
41 6 43 10 3 5 9 6 13 4 4 -3 25 -1 46 5 20 6 47 13 59 15 11 3 26 6 31 8 23
6 111 20 118 18 4 -1 7 2 7 7 0 5 8 8 18 6 9 -1 22 0 27 4 6 3 17 6 25 6 8 1
30 5 48 9 19 4 43 9 55 11 12 2 40 7 62 10 22 4 51 8 65 8 14 1 27 5 30 8 5 6
150 31 188 32 12 1 22 4 22 8 0 4 8 6 18 5 9 -2 31 1 47 5 17 4 50 11 75 14
24 4 51 10 60 15 8 4 25 6 38 4 12 -2 22 0 22 4 0 4 12 7 28 7 15 -1 32 1 37
4 10 6 17 7 70 15 17 3 48 8 70 11 63 10 107 16 143 18 17 1 32 5 32 9 0 4 10
7 23 7 25 -1 142 16 142 21 0 1 14 3 30 3 17 1 35 5 40 8 6 3 29 6 52 5 22 -1
39 2 36 7 -2 4 14 8 36 8 38 1 58 4 64 8 1 1 16 4 32 6 46 5 107 14 134 20 13
2 49 7 80 11 31 3 79 10 106 15 28 5 66 11 85 13 19 2 35 5 35 6 0 2 16 4 35
5 55 5 149 16 173 21 12 3 40 7 62 9 22 2 58 6 80 9 93 13 113 16 165 21 54 6
100 12 170 21 19 2 60 7 90 9 115 11 216 22 275 31 50 7 137 15 192 17 29 1
53 5 53 8 0 4 12 6 28 6 15 0 59 4 97 8 39 5 80 8 93 7 12 -1 22 4 22 11 0 8
4 7 10 -3 5 -8 10 -10 10 -5 0 6 19 9 42 8 24 0 49 3 56 9 8 7 12 7 12 -2 0
-8 4 -9 13 -3 6 5 30 9 52 9 22 -1 43 4 47 9 5 6 8 5 8 -3 0 -8 5 -10 13 -5 6
4 37 9 67 11 119 6 196 15 207 24 7 6 14 5 18 -2 4 -6 13 -7 23 -2 9 5 43 7
75 6 31 -1 57 1 57 5 0 3 15 6 33 6 l32 0 3 321 2 321 -62 -1 c-35 0 -81 -3
-103 -6z"/>
<path d="M9128 6695 c-2 -2 -28 -5 -58 -8 -30 -3 -65 -8 -77 -11 -52 -11 -172
-47 -223 -67 -30 -11 -60 -21 -66 -23 -7 -1 -19 -8 -28 -15 -16 -13 -29 -21
-118 -70 -23 -13 -45 -27 -48 -30 -3 -3 -21 -19 -40 -35 -92 -74 -244 -232
-254 -264 -4 -12 -11 -22 -16 -22 -5 0 -22 -21 -37 -47 -15 -27 -33 -54 -40
-61 -7 -8 -11 -18 -8 -23 4 -5 1 -9 -4 -9 -6 0 -11 -6 -11 -13 0 -7 -8 -28
-19 -47 -21 -40 -46 -111 -43 -122 1 -5 -3 -8 -10 -8 -6 0 -9 -3 -5 -6 3 -3
-1 -23 -8 -44 -7 -21 -16 -53 -19 -72 -3 -18 -8 -44 -11 -58 -14 -57 -19 -98
-19 -152 -1 -32 -3 -58 -6 -58 -10 0 -9 -90 1 -96 5 -3 6 -11 2 -17 -10 -16
-11 -47 -3 -52 4 -3 6 -16 5 -30 -2 -14 0 -25 4 -25 4 0 7 -17 6 -37 0 -21 2
-42 4 -48 3 -5 7 -14 8 -20 1 -5 7 -28 13 -50 6 -22 12 -47 14 -55 12 -47 61
-176 68 -181 6 -3 9 -8 7 -10 -7 -12 71 -141 141 -233 59 -79 207 -226 226
-226 4 0 14 -8 23 -18 19 -21 156 -113 191 -129 109 -49 147 -64 175 -70 27
-6 37 -9 55 -16 27 -10 125 -31 134 -29 5 2 16 0 25 -4 32 -15 221 -22 221 -9
0 5 4 4 9 -4 6 -10 10 -10 16 -1 6 9 10 9 16 -1 5 -8 9 -9 9 -4 0 6 19 10 43
9 23 0 47 2 52 5 6 3 19 7 30 8 31 4 118 24 135 30 26 10 45 14 63 14 9 0 17
4 17 9 0 4 12 11 28 15 34 8 155 66 163 78 3 5 9 7 12 5 4 -1 15 5 27 14 11
10 20 14 20 10 0 -4 4 -2 8 3 4 6 27 23 50 40 24 16 71 55 103 86 32 31 59 54
59 50 0 -3 8 6 18 22 10 15 22 24 25 20 4 -3 7 -1 7 5 0 6 16 26 35 45 19 19
35 39 35 46 0 6 4 11 8 11 9 0 66 87 61 92 -2 2 6 14 19 28 12 13 22 30 22 37
0 7 5 13 10 13 6 0 9 3 8 8 -1 4 3 16 9 27 6 11 12 23 13 27 1 4 4 17 7 28 3
11 10 20 15 20 6 0 8 6 5 14 -3 7 0 19 6 25 7 7 12 15 13 19 2 15 17 68 23 77
3 6 6 15 7 20 1 6 7 37 12 70 23 126 25 154 25 300 -1 155 -9 256 -21 265 -4
3 -7 15 -6 28 1 12 -3 22 -8 22 -5 0 -7 4 -4 8 4 7 -11 71 -28 117 -2 6 -3 12
-3 15 0 3 -10 24 -21 46 -12 23 -18 44 -15 48 4 3 2 6 -4 6 -6 0 -23 29 -39
64 -16 36 -32 62 -36 60 -5 -3 -8 2 -8 11 0 19 -37 76 -57 88 -7 4 -13 12 -13
17 0 6 -8 18 -17 28 -24 25 -53 60 -80 96 -13 17 -23 27 -23 24 0 -4 -13 5
-28 20 -15 15 -26 31 -23 36 2 5 0 6 -5 3 -5 -3 -21 3 -34 14 -39 31 -223 154
-245 164 -11 4 -23 7 -27 7 -5 -1 -8 2 -8 8 0 6 -3 9 -7 8 -5 -1 -26 6 -48 16
-21 9 -46 18 -55 19 -8 2 -20 6 -26 9 -6 4 -26 10 -45 13 -19 3 -42 8 -51 11
-36 11 -65 16 -118 20 -70 5 -289 12 -292 9z m332 -140 c25 -4 47 -10 50 -14
3 -3 14 -7 25 -9 21 -3 29 -5 58 -15 9 -4 25 -10 35 -14 9 -3 24 -7 32 -9 8
-2 23 -7 35 -13 11 -5 35 -15 53 -23 17 -7 32 -16 32 -20 0 -5 7 -8 15 -8 8 0
15 -4 15 -9 0 -8 21 -17 44 -19 5 0 12 -4 15 -9 3 -4 29 -26 56 -47 71 -56
233 -223 263 -271 14 -22 30 -43 36 -47 6 -5 7 -8 1 -8 -6 0 -6 -3 0 -8 11 -7
65 -117 64 -128 0 -4 4 -10 9 -13 18 -12 59 -141 69 -218 3 -24 9 -43 13 -43
12 0 18 -324 6 -405 -3 -27 -8 -64 -10 -82 -2 -17 -7 -36 -11 -43 -4 -7 -10
-27 -12 -46 -3 -19 -18 -61 -34 -94 -16 -33 -30 -63 -31 -68 -1 -4 -17 -33
-35 -64 -18 -31 -33 -60 -33 -65 0 -5 -8 -18 -17 -29 -10 -10 -30 -37 -44 -59
-32 -49 -114 -135 -129 -135 -6 0 -8 -4 -5 -10 3 -5 3 -10 -2 -10 -4 0 -28
-18 -53 -40 -101 -90 -336 -209 -460 -234 -14 -3 -36 -8 -50 -11 -14 -3 -50
-8 -80 -12 -76 -8 -73 -8 -89 -17 -9 -6 -12 -5 -8 1 4 5 -14 9 -45 8 -29 -1
-78 2 -111 7 -58 8 -74 11 -127 23 -14 3 -34 7 -45 10 -45 9 -88 25 -103 37
-13 11 -14 11 -7 -2 8 -13 7 -13 -10 0 -10 8 -19 13 -19 11 -2 -8 -156 73
-156 81 0 5 -4 7 -8 4 -4 -3 -24 10 -44 29 -20 18 -39 31 -41 29 -2 -3 -26 15
-52 38 -88 80 -143 137 -137 142 3 3 -2 6 -12 6 -9 0 -15 4 -12 9 3 5 -1 11
-9 15 -8 3 -15 12 -15 21 0 8 -4 15 -10 15 -5 0 -10 7 -10 15 0 8 -4 15 -8 15
-4 0 -24 29 -43 65 -18 36 -37 65 -41 65 -5 0 -8 7 -8 15 0 8 -4 23 -10 33 -8
14 -27 57 -35 82 -1 3 -4 12 -8 20 -9 23 -29 89 -32 108 -2 9 -4 17 -5 17 -2
0 -9 35 -17 90 -14 87 -8 435 6 435 3 0 7 10 7 23 2 24 7 45 25 97 15 44 21
64 19 68 -1 2 6 14 14 28 9 13 14 24 11 24 -4 0 1 7 9 16 9 8 16 22 16 30 0 8
3 14 8 14 4 0 13 15 21 33 8 17 24 46 36 62 12 17 25 37 28 45 13 30 75 109
81 103 3 -4 6 -1 6 5 0 6 17 28 39 49 52 52 121 112 121 107 0 -4 33 22 62 49
10 9 18 15 18 12 0 -2 23 9 50 25 43 25 134 71 150 75 3 1 19 7 35 14 17 7 41
15 55 17 14 3 36 9 50 13 37 13 72 21 137 27 32 4 59 7 60 8 4 3 254 -13 293
-19z"/>
<path d="M8752 6037 c-12 -6 -25 -21 -28 -34 -4 -13 -9 -22 -12 -19 -2 3 -14
-14 -25 -37 -12 -23 -23 -44 -26 -47 -4 -3 -13 -18 -21 -35 -8 -16 -17 -32
-20 -35 -5 -5 -22 -33 -47 -80 -8 -14 -23 -38 -33 -55 -11 -16 -31 -53 -45
-81 -15 -28 -34 -60 -43 -71 -9 -10 -28 -41 -42 -68 -14 -28 -27 -52 -30 -55
-3 -3 -16 -25 -29 -50 -14 -25 -33 -56 -42 -70 -10 -14 -21 -41 -25 -60 -10
-54 -10 -210 -1 -210 5 0 7 -7 4 -14 -10 -26 74 -37 304 -38 126 0 151 -3 156
-16 4 -8 6 -55 6 -104 0 -48 4 -88 8 -88 4 0 6 -9 4 -20 -2 -11 0 -21 6 -21
14 -2 29 -6 32 -9 1 -1 48 -3 104 -4 108 -2 116 2 108 44 -2 11 0 18 5 15 4
-3 8 10 8 28 -1 17 0 64 1 102 1 69 2 71 27 73 15 1 44 7 64 12 30 8 37 14 36
33 -1 12 0 27 3 32 10 18 8 89 -2 112 -10 23 -35 34 -84 36 -17 1 -35 5 -39
10 -4 4 -8 51 -10 105 -5 221 -5 221 -66 218 -16 -1 -28 1 -28 5 0 3 -25 5
-56 3 -39 -2 -60 -9 -69 -21 -13 -18 -30 -121 -26 -160 1 -13 -1 -23 -6 -23
-5 0 -9 -21 -10 -47 -3 -93 3 -88 -112 -88 -57 0 -105 3 -107 7 -3 4 1 18 8
30 7 13 11 26 10 31 -1 4 2 7 8 7 6 0 10 5 10 11 0 6 9 24 21 40 11 17 35 55
51 87 17 31 37 64 44 73 8 9 12 18 9 21 -3 3 1 11 10 18 8 7 15 17 15 22 0 6
8 22 19 36 10 15 36 61 58 102 22 41 49 91 59 110 11 19 22 37 27 38 4 2 7 8
7 13 0 5 11 26 23 47 19 30 22 42 15 65 -9 24 -19 32 -40 28 -5 0 -8 3 -8 8 0
5 -8 11 -17 15 -87 30 -100 32 -121 23z"/>
<path d="M9633 6037 c-2 -4 -10 -7 -16 -6 -20 3 -67 -12 -67 -22 0 -5 -3 -8
-7 -7 -14 2 -47 -15 -76 -41 -60 -53 -78 -71 -72 -71 4 0 0 -7 -7 -15 -31 -34
-38 -45 -31 -45 4 0 3 -4 -3 -8 -13 -8 -32 -89 -26 -114 2 -9 16 -23 33 -30
16 -7 29 -16 29 -21 0 -4 6 -7 13 -6 6 1 25 -3 40 -9 38 -16 63 -15 79 3 29
32 39 45 33 45 -3 0 -1 6 4 13 82 101 110 120 167 111 20 -3 44 -12 51 -20 8
-8 18 -14 22 -14 12 0 33 -63 35 -105 2 -47 -21 -125 -37 -125 -6 0 -8 -3 -4
-6 18 -18 -158 -194 -193 -194 -6 0 -8 -4 -5 -10 3 -5 1 -10 -5 -10 -17 0
-139 -127 -178 -186 -21 -32 -56 -108 -57 -124 0 -8 -3 -20 -7 -25 -3 -6 -5
-25 -4 -43 1 -18 -1 -35 -5 -38 -10 -6 -6 -151 5 -161 4 -4 167 -8 363 -8 342
0 355 1 365 20 12 21 18 145 7 145 -4 0 -6 13 -5 30 3 45 -12 48 -271 50 -154
1 -162 2 -169 22 -3 11 -2 23 2 27 5 3 10 14 12 24 4 21 16 34 93 97 30 24 56
48 57 52 2 5 8 6 13 2 5 -3 9 2 9 10 0 9 4 16 10 16 22 0 163 138 186 183 8
15 19 27 24 27 6 0 10 4 10 9 0 5 8 26 17 47 13 30 17 71 18 177 0 75 -2 137
-5 137 -3 0 -11 15 -18 34 -7 18 -22 44 -33 57 -12 13 -26 31 -33 39 -18 26
-74 61 -111 71 -19 6 -36 9 -37 8 -2 -1 -14 3 -27 10 -19 10 -22 10 -16 0 6
-9 4 -10 -6 -3 -17 11 -159 12 -166 1z"/>
<path d="M3727 4754 c-3 -3 -45 -8 -94 -10 -82 -4 -217 -24 -230 -34 -2 -2
-12 -3 -22 -4 -11 0 -23 -4 -27 -8 -4 -5 -16 -8 -26 -8 -10 0 -18 -5 -18 -11
0 -5 -5 -7 -10 -4 -6 4 -16 2 -23 -3 -7 -6 -16 -11 -22 -13 -35 -9 -85 -34
-85 -42 0 -5 -6 -7 -14 -4 -8 3 -16 3 -18 -1 -2 -4 -27 -22 -55 -41 -29 -18
-53 -37 -53 -43 0 -5 -4 -7 -8 -4 -21 13 -207 -192 -254 -281 -55 -103 -90
-180 -95 -207 -2 -11 -7 -24 -12 -30 -5 -6 -14 -36 -21 -66 -7 -30 -16 -60
-21 -66 -5 -6 -7 -20 -4 -32 2 -12 -1 -24 -6 -27 -5 -4 -9 -18 -9 -33 0 -15
-4 -56 -11 -92 -6 -36 -12 -110 -13 -166 -1 -55 -6 -106 -11 -114 -5 -7 -4
-11 1 -7 5 3 10 -30 11 -76 2 -87 10 -186 19 -227 3 -14 6 -35 7 -47 1 -13 3
-23 7 -23 3 0 6 -10 7 -22 5 -50 10 -74 15 -84 5 -8 40 -119 42 -134 3 -16 68
-140 76 -145 6 -4 8 -11 5 -16 -4 -5 -1 -9 4 -9 6 0 11 -7 11 -15 0 -8 4 -15
9 -15 5 0 12 -8 15 -17 4 -10 20 -33 36 -52 17 -18 30 -37 30 -41 0 -3 11 -13
25 -20 14 -7 25 -19 25 -27 0 -7 3 -13 8 -13 4 0 23 -14 42 -30 57 -48 105
-81 116 -79 4 0 10 -3 13 -8 11 -15 68 -43 75 -36 3 3 6 1 6 -5 0 -6 17 -16
38 -23 20 -6 42 -14 47 -18 6 -3 16 -7 23 -8 6 -2 18 -4 25 -6 6 -1 18 -6 25
-11 7 -4 16 -5 19 -2 3 3 12 1 20 -5 13 -11 57 -19 116 -22 15 0 27 -3 27 -7
0 -3 21 -6 48 -5 26 0 64 -3 85 -6 20 -4 40 -2 43 2 3 5 11 6 17 2 13 -9 227
-11 227 -3 0 3 26 5 58 5 31 0 62 2 67 5 6 2 12 5 15 5 3 1 29 5 58 9 28 4 52
11 52 14 0 4 12 8 28 9 30 2 77 9 77 12 0 3 12 6 54 15 12 3 29 10 35 16 7 5
15 8 18 5 5 -5 34 6 116 42 20 9 39 17 42 17 3 1 22 13 43 26 47 31 58 70 56
192 -1 87 -10 123 -34 140 -13 10 -75 6 -75 -5 0 -4 -5 -5 -10 -2 -6 4 -17 2
-24 -4 -7 -6 -25 -12 -40 -13 -14 -1 -26 -5 -26 -8 0 -6 -80 -31 -94 -30 -5 1
-12 -2 -15 -7 -6 -9 -107 -41 -146 -47 -11 -2 -27 -6 -35 -9 -21 -8 -88 -19
-130 -22 -19 -2 -35 -4 -35 -5 0 -1 -73 -3 -162 -4 -104 -1 -163 2 -163 9 0 5
-4 4 -9 -4 -7 -11 -13 -12 -23 -3 -8 6 -23 11 -33 10 -62 -4 -233 68 -290 122
-14 13 -25 20 -25 16 0 -4 -27 23 -60 60 -32 37 -57 71 -55 75 3 4 -2 10 -10
13 -8 3 -14 9 -13 13 1 4 -4 19 -11 32 -25 45 -68 178 -64 200 1 11 -1 21 -5
21 -4 0 -8 10 -9 23 -1 12 -4 58 -8 102 -4 44 -7 96 -8 115 l-2 35 270 1 c149
1 340 3 426 5 86 1 161 -1 168 -5 6 -4 11 -4 11 1 0 4 49 8 109 8 63 0 107 -4
104 -9 -4 -5 0 -6 7 -1 8 5 115 10 240 12 229 2 260 4 295 19 29 12 65 46 59
56 -3 4 -1 8 4 8 12 0 13 7 19 184 4 125 2 161 -9 167 -11 7 -11 9 0 9 7 0 11
3 9 8 -5 7 -18 88 -21 129 -1 12 -5 25 -9 29 -4 4 -7 17 -7 29 0 13 -7 42 -16
66 -8 24 -17 51 -19 60 -2 9 -13 36 -24 60 -12 23 -21 48 -21 55 0 7 -3 14 -7
16 -11 4 -73 107 -73 119 0 6 -4 7 -10 4 -5 -3 -10 -2 -10 4 0 6 -11 22 -25
36 -14 14 -24 25 -21 25 3 0 -6 11 -20 25 -14 14 -29 25 -35 25 -6 0 -7 5 -4
10 3 6 0 10 -7 10 -8 0 -21 8 -29 18 -9 9 -26 24 -39 32 -12 8 -32 22 -44 31
-53 41 -249 122 -293 122 -7 0 -13 4 -13 8 0 4 -6 6 -12 6 -7 -1 -42 2 -78 7
-36 4 -85 9 -110 10 -25 1 -50 5 -56 9 -6 3 -14 4 -17 1z m-25 -353 c15 4 28
5 30 3 2 -2 24 -6 49 -9 92 -11 147 -22 164 -35 6 -4 21 -11 34 -15 34 -11
119 -71 160 -114 43 -47 92 -122 85 -132 -3 -5 -1 -9 4 -9 5 0 17 -21 26 -47
10 -27 22 -56 27 -67 8 -14 8 -16 -3 -10 -10 6 -11 5 -1 -8 7 -8 10 -18 6 -21
-3 -4 -2 -7 4 -7 6 0 11 -10 10 -22 0 -13 2 -39 6 -58 5 -31 10 -128 8 -155
-1 -7 -216 -10 -628 -9 -346 1 -631 2 -634 3 -6 1 -5 113 1 119 1 1 3 10 4 20
1 9 4 22 7 27 4 6 12 34 19 63 6 28 16 55 21 58 5 3 7 10 4 15 -4 5 -1 9 4 9
6 0 10 4 9 8 -4 11 53 119 75 143 10 10 16 19 13 19 -3 0 17 23 43 50 26 28
53 50 60 50 6 0 11 4 11 10 0 8 121 81 145 87 6 1 19 4 30 7 11 2 20 5 20 7 0
1 9 3 20 5 36 5 79 15 83 19 2 2 16 0 30 -4 15 -4 39 -4 54 0z"/>
<path d="M1783 4738 c-46 -7 -194 -67 -168 -68 6 -1 -6 -9 -25 -18 -19 -10
-46 -27 -59 -37 -49 -41 -161 -154 -194 -198 -19 -25 -38 -43 -42 -39 -4 4 -5
2 -3 -3 2 -6 -7 -23 -19 -39 -13 -16 -23 -23 -24 -15 0 8 -2 70 -3 139 -2 69
-5 127 -6 130 -1 3 -3 16 -4 30 -3 45 -16 68 -44 76 -15 4 -34 9 -42 11 -8 2
-66 4 -129 4 -90 -1 -118 -4 -132 -17 -20 -18 -30 -67 -35 -174 -2 -41 -4 -77
-5 -80 -1 -3 -2 -358 -3 -790 -1 -513 2 -788 9 -792 7 -5 7 -8 0 -8 -10 0 -12
-107 -2 -117 4 -3 2 -14 -4 -24 -7 -14 -6 -19 3 -19 9 0 9 -3 -2 -10 -12 -8
-12 -10 -1 -10 11 0 11 -3 1 -15 -10 -12 -10 -15 0 -15 10 0 10 -3 0 -15 -7
-8 -8 -15 -3 -15 12 0 11 -53 -2 -62 -6 -5 -5 -8 4 -8 10 0 11 -3 2 -13 -6 -8
-8 -17 -4 -20 3 -4 7 -64 8 -135 1 -70 5 -137 9 -149 7 -23 88 -49 139 -45 19
1 26 -1 21 -9 -5 -8 -3 -9 6 -4 7 4 39 9 71 11 119 6 159 20 159 58 0 9 4 16
8 16 5 0 8 10 7 23 -1 12 3 28 9 36 8 11 8 13 -1 8 -9 -6 -11 1 -8 22 2 17 6
35 10 41 3 5 1 10 -5 10 -6 0 -8 5 -3 13 4 6 8 329 8 717 1 683 1 706 20 735
11 17 28 39 37 49 10 11 18 26 18 33 0 7 4 13 8 13 5 0 23 21 40 48 17 26 43
59 57 75 14 15 24 27 22 27 -2 0 23 28 57 63 67 70 154 134 195 144 14 3 31 9
36 12 13 8 195 10 195 2 0 -4 14 -8 31 -9 17 -1 39 -7 49 -12 10 -6 28 -10 39
-10 12 0 21 -5 21 -12 0 -6 3 -9 6 -5 3 3 17 1 31 -4 19 -7 30 -5 49 10 14 11
25 22 25 25 -1 3 -1 7 0 9 12 40 18 230 8 282 -4 22 -9 47 -11 55 -2 8 -14 23
-28 32 -27 19 -119 51 -135 47 -6 -1 -17 1 -25 4 -24 10 -190 13 -247 5z"/>
<path d="M6177 4744 c-1 -2 -22 -4 -45 -5 -24 -2 -45 -6 -48 -11 -3 -4 -11 -5
-19 -2 -8 3 -20 2 -27 -2 -7 -5 -17 -9 -23 -11 -40 -8 -55 -13 -95 -29 -177
-71 -310 -180 -428 -352 -30 -44 -67 -115 -64 -124 1 -5 -3 -8 -8 -8 -5 0 -9
-3 -8 -7 0 -5 -7 -26 -17 -48 -10 -22 -19 -42 -20 -45 -3 -13 -28 -86 -33 -95
-3 -5 -7 -16 -8 -25 -1 -8 -5 -26 -9 -40 -4 -14 -8 -35 -9 -47 0 -13 -4 -23
-8 -23 -4 0 -6 -8 -6 -17 1 -10 -2 -36 -7 -58 -11 -54 -13 -88 -20 -245 -3
-74 -7 -140 -10 -147 -2 -6 1 -14 8 -17 9 -3 9 -5 0 -5 -7 -1 -10 -7 -7 -14 2
-7 6 -58 8 -112 3 -55 5 -100 6 -100 2 0 4 -16 5 -35 1 -19 8 -62 15 -95 6
-33 12 -71 13 -85 1 -14 5 -27 9 -31 4 -3 9 -18 12 -35 3 -28 6 -37 22 -79 4
-11 8 -23 9 -27 2 -5 4 -10 5 -13 1 -3 3 -8 5 -12 5 -21 19 -51 36 -84 10 -20
16 -39 12 -43 -3 -3 -2 -6 4 -6 6 0 16 -14 23 -31 7 -17 18 -36 24 -42 7 -7
22 -29 35 -49 12 -21 27 -38 32 -38 5 0 9 -5 9 -11 0 -27 136 -141 220 -185
30 -16 58 -33 62 -39 4 -5 8 -6 8 -1 0 5 7 3 15 -4 8 -7 15 -9 15 -5 0 4 6 3
13 -2 10 -8 48 -22 77 -27 3 -1 10 -4 15 -7 6 -3 20 -4 33 -3 12 0 22 -2 22
-5 0 -13 227 -18 320 -7 72 8 148 24 165 34 6 4 15 7 20 8 20 3 110 48 117 58
4 6 8 7 8 3 0 -8 138 82 163 107 9 9 21 16 27 16 6 0 8 5 5 10 -3 6 1 10 9 10
8 0 19 6 23 13 9 13 108 97 115 97 3 0 5 -233 6 -517 2 -712 4 -734 65 -748
85 -20 312 -10 340 15 12 11 19 50 21 126 2 39 6 76 10 82 4 7 3 12 -3 12 -7
0 -7 8 -1 24 5 15 5 27 -3 35 -8 8 -8 11 0 11 13 0 12 32 -2 42 -6 5 -6 8 1 8
13 0 16 2525 3 2551 -5 9 -5 19 -1 23 10 10 9 126 -1 126 -4 0 -5 6 0 13 11
18 12 37 2 37 -6 0 -7 6 -3 12 12 19 12 48 0 48 -7 0 -7 3 -1 8 11 8 16 42 6
42 -4 0 -7 9 -7 20 0 11 4 20 9 20 4 0 5 5 1 11 -4 6 -7 45 -8 87 -1 64 -4 77
-21 86 -11 6 -22 13 -25 16 -6 6 -24 7 -123 12 -38 2 -71 0 -73 -4 -3 -5 -10
-8 -15 -8 -6 0 -7 5 -3 12 5 8 3 8 -7 2 -8 -5 -30 -14 -49 -19 -53 -16 -62
-44 -63 -206 0 -156 6 -149 -67 -79 -41 39 -132 120 -136 120 -2 0 -31 21 -66
48 -65 49 -216 128 -263 137 -5 1 -12 3 -15 5 -3 1 -14 4 -25 6 -11 1 -31 5
-45 9 -26 7 -257 15 -263 9z m238 -384 c0 -1 16 -4 35 -7 18 -2 47 -11 62 -19
15 -8 28 -11 28 -8 0 4 9 -1 21 -12 12 -10 24 -18 28 -17 9 4 125 -73 173
-115 55 -48 141 -135 200 -202 l46 -52 0 -482 0 -481 -58 -57 c-32 -32 -57
-58 -56 -58 2 0 -20 -24 -48 -52 -28 -29 -52 -52 -54 -52 -2 1 -20 -15 -41
-35 -21 -20 -49 -43 -61 -51 -12 -8 -30 -22 -41 -31 -10 -9 -40 -27 -66 -40
-27 -13 -50 -27 -51 -32 -2 -4 -8 -4 -13 -1 -6 3 -16 0 -24 -6 -8 -7 -15 -9
-15 -6 0 4 -8 3 -17 -3 -37 -19 -234 -33 -250 -18 -3 4 -17 7 -30 7 -50 0
-156 62 -223 131 -76 77 -90 94 -90 109 0 5 -3 10 -8 10 -9 0 -58 111 -55 122
2 5 -1 8 -6 8 -9 0 -25 56 -22 78 1 6 -2 12 -7 12 -5 0 -8 11 -7 25 2 14 0 25
-4 25 -4 0 -8 15 -9 33 -2 34 -6 66 -16 132 -3 22 -7 72 -8 112 -1 43 -6 70
-11 66 -6 -4 -7 -1 -1 8 12 19 12 82 -1 91 -6 5 -6 8 0 8 6 0 12 30 13 68 2
37 5 81 8 97 10 51 15 89 15 110 0 10 4 24 10 31 5 7 9 16 7 20 -2 11 12 75
20 89 4 6 8 18 9 29 2 10 9 30 17 45 7 14 26 52 42 84 16 31 39 68 52 82 12
13 22 27 22 31 0 24 154 139 200 149 8 2 35 10 58 17 34 10 227 17 227 8z"/>
</g>
</svg>
